<?xml version="1.0" encoding="UTF-8" standalone="no"?>
<!DOCTYPE svg PUBLIC "-//W3C//DTD SVG 1.1//EN"
 "http://www.w3.org/Graphics/SVG/1.1/DTD/svg11.dtd">
<!-- Generated by graphviz version 2.43.0 (0)
 -->
<!-- Title: %3 Pages: 1 -->
<svg width="1200pt" height="124pt"
 viewBox="0.00 0.00 576.00 59.75" xmlns="http://www.w3.org/2000/svg" xmlns:xlink="http://www.w3.org/1999/xlink">
<g id="graph0" class="graph" transform="scale(0.97 0.97) rotate(0) translate(4 124)">
<title>%3</title>
<polygon fill="white" stroke="transparent" points="-4,4 -4,-124 1230,-124 1230,4 -4,4"/>
<!-- 140249945798736 -->
<g id="node1" class="node">
<title>140249945798736</title>
<polygon fill="none" stroke="black" points="1015,-54.5 1015,-90.5 1226,-90.5 1226,-54.5 1015,-54.5"/>
<text text-anchor="middle" x="1068.5" y="-68.8" font-family="Times,serif" font-size="14.00">data &#45;8.0000</text>
<polyline fill="none" stroke="black" points="1122,-54.5 1122,-90.5 "/>
<text text-anchor="middle" x="1174" y="-68.8" font-family="Times,serif" font-size="14.00">grad 0.0000</text>
</g>
<!-- 140249945798736* -->
<g id="node2" class="node">
<title>140249945798736*</title>
<ellipse fill="none" stroke="black" cx="952" cy="-72.5" rx="27" ry="18"/>
<text text-anchor="middle" x="952" y="-68.8" font-family="Times,serif" font-size="14.00">*</text>
</g>
<!-- 140249945798736*&#45;&gt;140249945798736 -->
<g id="edge1" class="edge">
<title>140249945798736*&#45;&gt;140249945798736</title>
<path fill="none" stroke="black" d="M979.02,-72.5C986.62,-72.5 995.46,-72.5 1004.93,-72.5"/>
<polygon fill="black" stroke="black" points="1005,-76 1015,-72.5 1005,-69 1005,-76"/>
</g>
<!-- 140249945795808 -->
<g id="node3" class="node">
<title>140249945795808</title>
<polygon fill="none" stroke="black" points="339,-55.5 339,-91.5 550,-91.5 550,-55.5 339,-55.5"/>
<text text-anchor="middle" x="392.5" y="-69.8" font-family="Times,serif" font-size="14.00">data &#45;6.0000</text>
<polyline fill="none" stroke="black" points="446,-55.5 446,-91.5 "/>
<text text-anchor="middle" x="498" y="-69.8" font-family="Times,serif" font-size="14.00">grad 0.0000</text>
</g>
<!-- 140249945798544+ -->
<g id="node9" class="node">
<title>140249945798544+</title>
<ellipse fill="none" stroke="black" cx="615" cy="-45.5" rx="27" ry="18"/>
<text text-anchor="middle" x="615" y="-41.8" font-family="Times,serif" font-size="14.00">+</text>
</g>
<!-- 140249945795808&#45;&gt;140249945798544+ -->
<g id="edge4" class="edge">
<title>140249945795808&#45;&gt;140249945798544+</title>
<path fill="none" stroke="black" d="M550.3,-56.09C560.38,-54.41 570.05,-52.8 578.68,-51.37"/>
<polygon fill="black" stroke="black" points="579.34,-54.81 588.63,-49.72 578.19,-47.9 579.34,-54.81"/>
</g>
<!-- 140249945795808* -->
<g id="node4" class="node">
<title>140249945795808*</title>
<ellipse fill="none" stroke="black" cx="274" cy="-73.5" rx="27" ry="18"/>
<text text-anchor="middle" x="274" y="-69.8" font-family="Times,serif" font-size="14.00">*</text>
</g>
<!-- 140249945795808*&#45;&gt;140249945795808 -->
<g id="edge2" class="edge">
<title>140249945795808*&#45;&gt;140249945795808</title>
<path fill="none" stroke="black" d="M301.33,-73.5C309.31,-73.5 318.64,-73.5 328.63,-73.5"/>
<polygon fill="black" stroke="black" points="328.82,-77 338.82,-73.5 328.82,-70 328.82,-77"/>
</g>
<!-- 140249945794848 -->
<g id="node5" class="node">
<title>140249945794848</title>
<polygon fill="none" stroke="black" points="678,-82.5 678,-118.5 889,-118.5 889,-82.5 678,-82.5"/>
<text text-anchor="middle" x="731.5" y="-96.8" font-family="Times,serif" font-size="14.00">data &#45;2.0000</text>
<polyline fill="none" stroke="black" points="785,-82.5 785,-118.5 "/>
<text text-anchor="middle" x="837" y="-96.8" font-family="Times,serif" font-size="14.00">grad 0.0000</text>
</g>
<!-- 140249945794848&#45;&gt;140249945798736* -->
<g id="edge6" class="edge">
<title>140249945794848&#45;&gt;140249945798736*</title>
<path fill="none" stroke="black" d="M889,-82.93C898.45,-81.34 907.51,-79.81 915.64,-78.45"/>
<polygon fill="black" stroke="black" points="916.48,-81.86 925.76,-76.74 915.32,-74.95 916.48,-81.86"/>
</g>
<!-- 140249945794368 -->
<g id="node6" class="node">
<title>140249945794368</title>
<polygon fill="none" stroke="black" points="2.5,-83.5 2.5,-119.5 208.5,-119.5 208.5,-83.5 2.5,-83.5"/>
<text text-anchor="middle" x="53.5" y="-97.8" font-family="Times,serif" font-size="14.00">data 2.0000</text>
<polyline fill="none" stroke="black" points="104.5,-83.5 104.5,-119.5 "/>
<text text-anchor="middle" x="156.5" y="-97.8" font-family="Times,serif" font-size="14.00">grad 0.0000</text>
</g>
<!-- 140249945794368&#45;&gt;140249945795808* -->
<g id="edge8" class="edge">
<title>140249945794368&#45;&gt;140249945795808*</title>
<path fill="none" stroke="black" d="M208.63,-84.33C218.87,-82.6 228.71,-80.95 237.48,-79.47"/>
<polygon fill="black" stroke="black" points="238.32,-82.88 247.6,-77.77 237.16,-75.98 238.32,-82.88"/>
</g>
<!-- 140249945799504 -->
<g id="node7" class="node">
<title>140249945799504</title>
<polygon fill="none" stroke="black" points="337,-0.5 337,-36.5 552,-36.5 552,-0.5 337,-0.5"/>
<text text-anchor="middle" x="392.5" y="-14.8" font-family="Times,serif" font-size="14.00">data 10.0000</text>
<polyline fill="none" stroke="black" points="448,-0.5 448,-36.5 "/>
<text text-anchor="middle" x="500" y="-14.8" font-family="Times,serif" font-size="14.00">grad 0.0000</text>
</g>
<!-- 140249945799504&#45;&gt;140249945798544+ -->
<g id="edge5" class="edge">
<title>140249945799504&#45;&gt;140249945798544+</title>
<path fill="none" stroke="black" d="M552.21,-35.6C561.57,-37.1 570.52,-38.53 578.57,-39.82"/>
<polygon fill="black" stroke="black" points="578.16,-43.3 588.59,-41.43 579.27,-36.39 578.16,-43.3"/>
</g>
<!-- 140249945798544 -->
<g id="node8" class="node">
<title>140249945798544</title>
<polygon fill="none" stroke="black" points="680.5,-27.5 680.5,-63.5 886.5,-63.5 886.5,-27.5 680.5,-27.5"/>
<text text-anchor="middle" x="731.5" y="-41.8" font-family="Times,serif" font-size="14.00">data 4.0000</text>
<polyline fill="none" stroke="black" points="782.5,-27.5 782.5,-63.5 "/>
<text text-anchor="middle" x="834.5" y="-41.8" font-family="Times,serif" font-size="14.00">grad 0.0000</text>
</g>
<!-- 140249945798544&#45;&gt;140249945798736* -->
<g id="edge7" class="edge">
<title>140249945798544&#45;&gt;140249945798736*</title>
<path fill="none" stroke="black" d="M886.63,-62.06C896.87,-63.72 906.71,-65.32 915.48,-66.74"/>
<polygon fill="black" stroke="black" points="915.17,-70.24 925.6,-68.38 916.29,-63.33 915.17,-70.24"/>
</g>
<!-- 140249945798544+&#45;&gt;140249945798544 -->
<g id="edge3" class="edge">
<title>140249945798544+&#45;&gt;140249945798544</title>
<path fill="none" stroke="black" d="M642.02,-45.5C650.26,-45.5 659.96,-45.5 670.35,-45.5"/>
<polygon fill="black" stroke="black" points="670.49,-49 680.49,-45.5 670.49,-42 670.49,-49"/>
</g>
<!-- 140249945796048 -->
<g id="node10" class="node">
<title>140249945796048</title>
<polygon fill="none" stroke="black" points="0,-28.5 0,-64.5 211,-64.5 211,-28.5 0,-28.5"/>
<text text-anchor="middle" x="53.5" y="-42.8" font-family="Times,serif" font-size="14.00">data &#45;3.0000</text>
<polyline fill="none" stroke="black" points="107,-28.5 107,-64.5 "/>
<text text-anchor="middle" x="159" y="-42.8" font-family="Times,serif" font-size="14.00">grad 0.0000</text>
</g>
<!-- 140249945796048&#45;&gt;140249945795808* -->
<g id="edge9" class="edge">
<title>140249945796048&#45;&gt;140249945795808*</title>
<path fill="none" stroke="black" d="M211,-63.45C220.36,-64.96 229.33,-66.42 237.41,-67.73"/>
<polygon fill="black" stroke="black" points="237.03,-71.21 247.46,-69.36 238.15,-64.3 237.03,-71.21"/>
</g>
</g>
</svg>
